<svg xmlns="http://www.w3.org/2000/svg" xmlns:xlink="http://www.w3.org/1999/xlink" width="1920" zoomAndPan="magnify" viewBox="0 0 1440 809.999993" height="1080" preserveAspectRatio="xMidYMid meet" version="1.0"><defs><g/></defs><g fill="#f5f4f0" fill-opacity="1"><g transform="translate(414.534705, 460.124997)"><g><path d="M 224.15625 -152.484375 L 119.8125 -85.609375 L 226.78125 0 L 181.6875 0 L 94.765625 -69.484375 L 41.171875 -35.078125 L 41.171875 0 L 13.078125 0 L 13.078125 -152.484375 L 41.171875 -152.484375 L 41.171875 -68.40625 L 172.09375 -152.484375 Z M 224.15625 -152.484375 "/></g></g></g><g fill="#f5f4f0" fill-opacity="1"><g transform="translate(630.4187, 460.124997)"><g><path d="M 133.109375 -152.484375 C 149.953125 -152.484375 165.632812 -150.523438 180.15625 -146.609375 C 194.675781 -142.691406 207.414062 -137.28125 218.375 -130.375 C 229.34375 -123.476562 237.878906 -115.414062 243.984375 -106.1875 C 250.085938 -96.96875 253.140625 -86.988281 253.140625 -76.25 C 253.140625 -65.5 250.085938 -55.507812 243.984375 -46.28125 C 237.878906 -37.0625 229.34375 -29.003906 218.375 -22.109375 C 207.414062 -15.210938 194.675781 -9.800781 180.15625 -5.875 C 165.632812 -1.957031 149.953125 0 133.109375 0 C 116.253906 0 100.566406 -1.957031 86.046875 -5.875 C 71.523438 -9.800781 58.78125 -15.210938 47.8125 -22.109375 C 36.851562 -29.003906 28.320312 -37.0625 22.21875 -46.28125 C 16.125 -55.507812 13.078125 -65.5 13.078125 -76.25 C 13.078125 -86.988281 16.125 -96.96875 22.21875 -106.1875 C 28.320312 -115.414062 36.851562 -123.476562 47.8125 -130.375 C 58.78125 -137.28125 71.523438 -142.691406 86.046875 -146.609375 C 100.566406 -150.523438 116.253906 -152.484375 133.109375 -152.484375 Z M 133.109375 -26.140625 C 143.992188 -26.140625 154.847656 -27.410156 165.671875 -29.953125 C 176.492188 -32.492188 186.40625 -36.050781 195.40625 -40.625 C 204.40625 -45.195312 211.59375 -50.5 216.96875 -56.53125 C 222.34375 -62.5625 225.03125 -69.132812 225.03125 -76.25 C 225.03125 -83.363281 222.34375 -89.929688 216.96875 -95.953125 C 211.59375 -101.984375 204.40625 -107.285156 195.40625 -111.859375 C 186.40625 -116.429688 176.492188 -119.988281 165.671875 -122.53125 C 154.847656 -125.070312 143.992188 -126.34375 133.109375 -126.34375 C 122.210938 -126.34375 111.351562 -125.070312 100.53125 -122.53125 C 89.71875 -119.988281 79.804688 -116.429688 70.796875 -111.859375 C 61.796875 -107.285156 54.609375 -101.984375 49.234375 -95.953125 C 43.859375 -89.929688 41.171875 -83.363281 41.171875 -76.25 C 41.171875 -69.132812 43.859375 -62.5625 49.234375 -56.53125 C 54.609375 -50.5 61.796875 -45.195312 70.796875 -40.625 C 79.804688 -36.050781 89.71875 -32.492188 100.53125 -29.953125 C 111.351562 -27.410156 122.210938 -26.140625 133.109375 -26.140625 Z M 133.109375 -26.140625 "/></g></g></g><g fill="#f5f4f0" fill-opacity="1"><g transform="translate(870.701265, 460.124997)"><g><path d="M 137.03125 -24.828125 L 228.953125 -152.484375 L 261.1875 -152.484375 L 154.453125 0 L 122 0 L 13.078125 -152.484375 L 45.3125 -152.484375 Z M 137.03125 -24.828125 "/></g></g></g><g fill="#f5f4f0" fill-opacity="1"><g transform="translate(1112.508775, 460.124997)"><g><path d="M 121.78125 -152.484375 L 155.765625 -152.484375 L 264.6875 0 L 230.265625 0 L 208.6875 -30.28125 L 68.625 -30.28125 L 47.046875 0 L 13.078125 0 Z M 88.65625 -58.375 L 188.65625 -58.375 L 138.765625 -128.09375 Z M 88.65625 -58.375 "/></g></g></g><g fill="#f5f4f0" fill-opacity="1"><g transform="translate(145.795312, 460.124997)"><g><path d="M 133.109375 -152.484375 C 149.953125 -152.484375 165.632812 -150.523438 180.15625 -146.609375 C 194.675781 -142.691406 207.414062 -137.28125 218.375 -130.375 C 229.34375 -123.476562 237.878906 -115.414062 243.984375 -106.1875 C 250.085938 -96.96875 253.140625 -86.988281 253.140625 -76.25 C 253.140625 -65.5 250.085938 -55.507812 243.984375 -46.28125 C 237.878906 -37.0625 229.34375 -29.003906 218.375 -22.109375 C 207.414062 -15.210938 194.675781 -9.800781 180.15625 -5.875 C 165.632812 -1.957031 149.953125 0 133.109375 0 C 116.253906 0 100.566406 -1.957031 86.046875 -5.875 C 71.523438 -9.800781 58.78125 -15.210938 47.8125 -22.109375 C 36.851562 -29.003906 28.320312 -37.0625 22.21875 -46.28125 C 16.125 -55.507812 13.078125 -65.5 13.078125 -76.25 C 13.078125 -86.988281 16.125 -96.96875 22.21875 -106.1875 C 28.320312 -115.414062 36.851562 -123.476562 47.8125 -130.375 C 58.78125 -137.28125 71.523438 -142.691406 86.046875 -146.609375 C 100.566406 -150.523438 116.253906 -152.484375 133.109375 -152.484375 Z M 133.109375 -26.140625 C 143.992188 -26.140625 154.847656 -27.410156 165.671875 -29.953125 C 176.492188 -32.492188 186.40625 -36.050781 195.40625 -40.625 C 204.40625 -45.195312 211.59375 -50.5 216.96875 -56.53125 C 222.34375 -62.5625 225.03125 -69.132812 225.03125 -76.25 C 225.03125 -83.363281 222.34375 -89.929688 216.96875 -95.953125 C 211.59375 -101.984375 204.40625 -107.285156 195.40625 -111.859375 C 186.40625 -116.429688 176.492188 -119.988281 165.671875 -122.53125 C 154.847656 -125.070312 143.992188 -126.34375 133.109375 -126.34375 C 122.210938 -126.34375 111.351562 -125.070312 100.53125 -122.53125 C 89.71875 -119.988281 79.804688 -116.429688 70.796875 -111.859375 C 61.796875 -107.285156 54.609375 -101.984375 49.234375 -95.953125 C 43.859375 -89.929688 41.171875 -83.363281 41.171875 -76.25 C 41.171875 -69.132812 43.859375 -62.5625 49.234375 -56.53125 C 54.609375 -50.5 61.796875 -45.195312 70.796875 -40.625 C 79.804688 -36.050781 89.71875 -32.492188 100.53125 -29.953125 C 111.351562 -27.410156 122.210938 -26.140625 133.109375 -26.140625 Z M 133.109375 -26.140625 "/></g></g></g><g fill="#f5f4f0" fill-opacity="1"><g transform="translate(38.352382, 460.124997)"><g><path d="M 133.109375 -152.484375 C 149.953125 -152.484375 165.632812 -150.523438 180.15625 -146.609375 C 194.675781 -142.691406 207.414062 -137.28125 218.375 -130.375 C 229.34375 -123.476562 237.878906 -115.414062 243.984375 -106.1875 C 250.085938 -96.96875 253.140625 -86.988281 253.140625 -76.25 C 253.140625 -65.5 250.085938 -55.507812 243.984375 -46.28125 C 237.878906 -37.0625 229.34375 -29.003906 218.375 -22.109375 C 207.414062 -15.210938 194.675781 -9.800781 180.15625 -5.875 C 165.632812 -1.957031 149.953125 0 133.109375 0 C 116.253906 0 100.566406 -1.957031 86.046875 -5.875 C 71.523438 -9.800781 58.78125 -15.210938 47.8125 -22.109375 C 36.851562 -29.003906 28.320312 -37.0625 22.21875 -46.28125 C 16.125 -55.507812 13.078125 -65.5 13.078125 -76.25 C 13.078125 -86.988281 16.125 -96.96875 22.21875 -106.1875 C 28.320312 -115.414062 36.851562 -123.476562 47.8125 -130.375 C 58.78125 -137.28125 71.523438 -142.691406 86.046875 -146.609375 C 100.566406 -150.523438 116.253906 -152.484375 133.109375 -152.484375 Z M 133.109375 -26.140625 C 143.992188 -26.140625 154.847656 -27.410156 165.671875 -29.953125 C 176.492188 -32.492188 186.40625 -36.050781 195.40625 -40.625 C 204.40625 -45.195312 211.59375 -50.5 216.96875 -56.53125 C 222.34375 -62.5625 225.03125 -69.132812 225.03125 -76.25 C 225.03125 -83.363281 222.34375 -89.929688 216.96875 -95.953125 C 211.59375 -101.984375 204.40625 -107.285156 195.40625 -111.859375 C 186.40625 -116.429688 176.492188 -119.988281 165.671875 -122.53125 C 154.847656 -125.070312 143.992188 -126.34375 133.109375 -126.34375 C 122.210938 -126.34375 111.351562 -125.070312 100.53125 -122.53125 C 89.71875 -119.988281 79.804688 -116.429688 70.796875 -111.859375 C 61.796875 -107.285156 54.609375 -101.984375 49.234375 -95.953125 C 43.859375 -89.929688 41.171875 -83.363281 41.171875 -76.25 C 41.171875 -69.132812 43.859375 -62.5625 49.234375 -56.53125 C 54.609375 -50.5 61.796875 -45.195312 70.796875 -40.625 C 79.804688 -36.050781 89.71875 -32.492188 100.53125 -29.953125 C 111.351562 -27.410156 122.210938 -26.140625 133.109375 -26.140625 Z M 133.109375 -26.140625 "/></g></g></g></svg>